#!OML:ASF E:\Steps\Project 1\Capture day 1\Session 2\Subject.ASF
:FULLY-SPECIFIED
:DEGREES
172
root 9.57643 16.3348 9.53575 -150.499 -0.316041 178.786
lowerback -27.6561 -1.77551 -6.28858
upperback -3.14422 -1.23725 -0.5714
thorax 11.9224 -1.23097 2.4396
lowerneck -4.3504 0.528116 -6.66458
upperneck 8.3888 1.56473 28.0054
head 2.88884 2.71141 10.2371
rclavicle -3.47873e-015 7.15625e-015
rhumerus -38.2436 -16.0592 -79.2301
rradius 33.8332
rwrist -3.03408
rhand -7.05661 -51.5774
rfingers 7.12502
rthumb 18.8164 -440.687
lclavicle -3.47873e-015 7.15625e-015
lhumerus -31.4392 2.99626 81.8765
lradius 25.545
lwrist -3.61388
lhand -19.799 -11.0217
lfingers 7.12502
lthumb 6.5339 18.8576
rfemur -26.7696 8.16061 17.6759
rtibia 7.6935
rfoot -19.7999 -4.13819
rtoes -27.4331
lfemur -28.8543 -9.79168 -17.5833
ltibia 10.0152
lfoot -9.04873 3.35548
ltoes -40.6149
173
root 9.57977 16.3379 9.53573 -150.547 -0.323346 178.74
lowerback -27.5024 -1.82129 -6.37725
upperback -3.09643 -1.26576 -0.573382
thorax 11.9019 -1.24285 2.48064
lowerneck -4.39125 0.574297 -6.59845
upperneck 8.47028 1.63978 28.1237
head 2.90544 2.77663 10.2745
rclavicle -2.5842e-015 -1.82882e-014
rhumerus -38.1928 -15.7198 -79.4399
rradius 34.1918
rwrist -3.20873
rhand -7.19896 -51.6745
rfingers 7.12502
rthumb 18.6795 -440.798
lclavicle -2.5842e-015 -1.82882e-014
lhumerus -31.6207 2.79729 81.8946
lradius 25.6225
lwrist -3.3692
lhand -20.6157 -11.7046
lfingers 7.12502
lthumb 5.74544 18.1975
rfemur -26.7041 8.15664 17.6459
rtibia 7.66295
rfoot -19.8714 -4.21286
rtoes -27.147
lfemur -28.837 -9.9197 -17.5913
ltibia 10.1007
lfoot -9.11461 3.41723
ltoes -40.9154
174
root 9.58328 16.3416 9.5356 -150.595 -0.311137 178.728
lowerback -27.3889 -1.83431 -6.45675
upperback -3.02002 -1.24628 -0.572452
thorax 11.9314 -1.23242 2.5366
lowerneck -4.45811 0.598438 -6.52168
upperneck 8.53865 1.68793 28.2488
head 2.92856 2.83165 10.3127
rclavicle 7.95139e-016 -2.38542e-014
rhumerus -38.0806 -15.4887 -79.5924
rradius 34.5168
rwrist -3.30366
rhand -7.25457 -51.9029
rfingers 7.12502
rthumb 18.626 -441.031
lclavicle 7.95139e-016 -2.38542e-014
lhumerus -31.6741 2.79594 81.8534
lradius 25.6206
lwrist -3.31049
lhand -21.0389 -12.1529
lfingers 7.12502
lthumb 5.33683 17.7599
rfemur -26.6315 8.29618 17.6121
rtibia 7.62921
rfoot -19.8523 -4.33576
rtoes -27.0736
lfemur -28.8343 -9.98769 -17.5684
ltibia 10.2078
lfoot -9.226 3.5089
ltoes -41.1406
175
root 9.58671 16.3441 9.53339 -150.616 -0.320931 178.756
lowerback -27.375 -1.8374 -6.46937
upperback -2.92058 -1.22398 -0.575779
thorax 12.0389 -1.21944 2.54794
lowerneck -4.55532 0.633238 -6.4397
upperneck 8.63003 1.74569 28.3616
head 2.96228 2.89452 10.3475
rclavicle 8.94531e-016 1.98785e-014
rhumerus -37.9457 -15.3886 -79.7073
rradius 34.7949
rwrist -3.31476
rhand -7.13236 -51.7386
rfingers 7.12502
rthumb 18.7435 -440.856
lclavicle 8.94531e-016 1.98785e-014
lhumerus -31.6825 2.9914 81.7168
lradius 25.6286
lwrist -3.44676
lhand -20.9969 -11.8667
lfingers 7.12502
lthumb 5.3773 18.045
rfemur -26.5698 8.44985 17.6242
rtibia 7.56696
rfoot -19.839 -4.4686
rtoes -26.8661
lfemur -28.8447 -9.99716 -17.5163
ltibia 10.3158
lfoot -9.30918 3.59367
ltoes -41.3095
176
root 9.5901 16.3441 9.53283 -150.595 -0.304778 178.738
lowerback -27.3455 -1.86197 -6.5124
upperback -2.88228 -1.23533 -0.588587
thorax 12.0698 -1.22506 2.554
lowerneck -4.58168 0.684873 -6.39015
upperneck 8.69963 1.83029 28.475
head 2.97064 2.96127 10.3858
rclavicle -6.95746e-016 9.54166e-015
rhumerus -37.871 -15.1641 -79.8574
rradius 35.101
rwrist -3.4668
rhand -7.07193 -51.3044
rfingers 7.12502
rthumb 18.8016 -440.416
lclavicle -6.95746e-016 9.54166e-015
lhumerus -31.904 3.07715 81.5943
lradius 25.7803
lwrist -3.53567
lhand -21.0206 -11.663
lfingers 7.12502
lthumb 5.35449 18.2494
rfemur -26.5899 8.51293 17.5939
rtibia 7.55294
rfoot -19.8423 -4.51886
rtoes -26.8793
lfemur -28.9214 -10.0196 -17.5269
ltibia 10.4598
lfoot -9.39481 3.63774
ltoes -41.1931
177
root 9.59418 16.3434 9.53407 -150.549 -0.251466 178.758
lowerback -27.3191 -1.88288 -6.54936
upperback -2.84244 -1.24624 -0.568848
thorax 12.1048 -1.23077 2.59404
lowerneck -4.58315 0.735134 -6.34873
upperneck 8.77243 1.91323 28.5965
head 2.97519 3.02583 10.428
rclavicle 2.25621e-014 1.63003e-014
rhumerus -37.7918 -14.9486 -79.9703
rradius 35.432
rwrist -3.54035
rhand -7.14395 -51.0493
rfingers 7.12502
rthumb 18.7324 -440.167
lclavicle 2.25621e-014 1.63003e-014
lhumerus -32.1152 2.97839 81.5646
lradius 26.0141
lwrist -3.40551
lhand -21.0534 -11.3635
lfingers 7.12502
lthumb 5.32279 18.5496
rfemur -26.7242 8.66799 17.5819
rtibia 7.71953
rfoot -19.867 -4.71466
rtoes -27.3617
lfemur -29.0282 -10.0842 -17.4521
ltibia 10.5356
lfoot -9.42674 3.68847
ltoes -40.8845
178
root 9.597 16.3442 9.53441 -150.502 -0.194223 178.834
lowerback -27.249 -1.84601 -6.50387
upperback -2.8127 -1.20748 -0.570232
thorax 12.0984 -1.2077 2.58213
lowerneck -4.62013 0.762847 -6.28029
upperneck 8.85607 1.96206 28.7078
head 2.99671 3.07888 10.4629
rclavicle -3.27995e-015 -2.38542e-015
rhumerus -37.8069 -14.8343 -80.0559
rradius 35.7883
rwrist -3.54073
rhand -7.23872 -51.1197
rfingers 7.12502
rthumb 18.6412 -440.247
lclavicle -3.27995e-015 -2.38542e-015
lhumerus -32.2268 2.72951 81.553
lradius 26.1687
lwrist -3.09642
lhand -21.1447 -11.1851
lfingers 7.12502
lthumb 5.23467 18.7302
rfemur -26.8741 8.85314 17.6235
rtibia 7.91186
rfoot -19.8832 -4.84138
rtoes -27.3819
lfemur -29.1207 -10.2077 -17.2826
ltibia 10.5841
lfoot -9.46238 3.80854
ltoes -40.3639
179
root 9.59861 16.3447 9.53553 -150.408 -0.13043 178.864
lowerback -27.2152 -1.78847 -6.47683
upperback -2.8011 -1.13487 -0.614913
thorax 12.0859 -1.17088 2.54303
lowerneck -4.65944 0.791174 -6.15383
upperneck 8.94091 2.01223 28.79
head 3.02009 3.13507 10.4758
rclavicle 4.87022e-015 9.93923e-015
rhumerus -37.9331 -14.7312 -80.1594
rradius 36.2317
rwrist -3.59199
rhand -7.35415 -51.2504
rfingers 7.12502
rthumb 18.5302 -440.388
lclavicle 4.87022e-015 9.93923e-015
lhumerus -32.2681 2.53625 81.4922
lradius 26.1521
lwrist -2.93603
lhand -21.199 -11.2904
lfingers 7.12502
lthumb 5.18223 18.6262
rfemur -26.9263 8.68718 17.6905
rtibia 7.76436
rfoot -19.7944 -4.52383
rtoes -27.0771
lfemur -29.2889 -10.2681 -17.1963
ltibia 10.7388
lfoot -9.62733 3.84941
ltoes -39.322
180
root 9.60098 16.3445 9.53776 -150.321 -0.103892 178.867
lowerback -27.2301 -1.79181 -6.48847
upperback -2.74632 -1.12216 -0.625885
thorax 12.1568 -1.1646 2.54115
lowerneck -4.70572 0.837301 -6.03353
upperneck 9.02766 2.08554 28.8718
head 3.04077 3.20163 10.4904
rclavicle -1.45113e-014 3.97569e-015
rhumerus -37.9572 -14.5748 -80.2803
rradius 36.6737
rwrist -3.63798
rhand -7.37363 -51.2921
rfingers 7.12502
rthumb 18.5114 -440.431
lclavicle -1.45113e-014 3.97569e-015
lhumerus -32.2383 2.54492 81.4107
lradius 26.0622
lwrist -3.01309
lhand -21.3006 -11.6166
lfingers 7.12502
lthumb 5.08409 18.3024
rfemur -27.3051 8.98837 17.616
rtibia 8.30662
rfoot -20.078 -4.88833
rtoes -27.2999
lfemur -29.4738 -10.318 -17.1462
ltibia 10.9164
lfoot -9.77572 3.85158
ltoes -38.518
181
root 9.60358 16.3435 9.53992 -150.29 -0.101128 178.845
lowerback -27.0447 -1.82504 -6.51329
upperback -2.7415 -1.16538 -0.628811
thorax 12.0691 -1.1806 2.53975
lowerneck -4.79053 0.895265 -6.02462
upperneck 9.14148 2.16644 28.9808
head 3.07261 3.27043 10.5394
rclavicle 4.37326e-015 -1.82882e-014
rhumerus -37.9363 -14.296 -80.4121
rradius 37.0201
rwrist -3.70049
rhand -7.04686 -51.3591
rfingers 7.12502
rthumb 18.8258 -440.468
lclavicle 4.37326e-015 -1.82882e-014
lhumerus -32.3155 2.67437 81.2905
lradius 25.9991
lwrist -3.08874
lhand -21.4478 -11.9766
lfingers 7.12502
lthumb 4.94197 17.9457
rfemur -27.487 9.00413 17.598
rtibia 8.57689
rfoot -20.2344 -4.91044
rtoes -27.3518
lfemur -29.6027 -10.3717 -17.1426
ltibia 11.0938
lfoot -9.82264 3.89064
ltoes -38.6828
182
root 9.60716 16.3435 9.54391 -150.21 -0.0552104 178.87
lowerback -26.719 -1.81542 -6.50822
upperback -2.79314 -1.17965 -0.631804
thorax 11.8378 -1.1791 2.53546
lowerneck -4.97531 0.926034 -6.05426
upperneck 9.2582 2.20274 29.0968
head 3.13222 3.32205 10.6022
rclavicle 2.78299e-015 -4.01545e-014
rhumerus -37.8587 -13.9944 -80.5506
rradius 37.2602
rwrist -3.79989
rhand -6.91739 -51.2285
rfingers 7.12502
rthumb 18.9503 -440.325
lclavicle 2.78299e-015 -4.01545e-014
lhumerus -32.4554 2.70713 81.1782
lradius 26.012
lwrist -2.9385
lhand -21.4181 -11.9052
lfingers 7.12502
lthumb 4.97065 18.0165
rfemur -27.6796 9.01722 17.6243
rtibia 8.7333
rfoot -20.2843 -4.87119
rtoes -27.6112
lfemur -29.869 -10.4192 -17.0702
ltibia 11.4381
lfoot -9.96744 4.04239
ltoes -39.3365
183
root 9.61248 16.3434 9.55269 -149.987 0.0095565 178.961
lowerback -26.4778 -1.80672 -6.51667
upperback -2.86659 -1.19784 -0.568537
thorax 11.628 -1.18387 2.61165
lowerneck -5.25182 0.904251 -6.12255
upperneck 9.33599 2.17355 29.277
head 3.20993 3.34844 10.6988
rclavicle 1.09332e-015 1.51076e-014
rhumerus -37.6444 -13.5517 -80.7197
rradius 37.4517
rwrist -4.07933
rhand -7.46433 -50.5924
rfingers 7.12502
rthumb 18.4242 -439.74
lclavicle 1.09332e-015 1.51076e-014
lhumerus -32.5523 2.81449 81.1224
lradius 26.0284
lwrist -2.82855
lhand -21.2625 -11.7319
lfingers 7.12502
lthumb 5.12086 18.1863
rfemur -28.0694 9.1372 17.6718
rtibia 8.9066
rfoot -20.3146 -4.96878
rtoes -28.2015
lfemur -30.4323 -10.483 -16.8543
ltibia 11.9959
lfoot -10.2366 4.26878
ltoes -39.5775
